<svg width="960" height="151" viewBox="0 0 960 151" fill="none" xmlns="http://www.w3.org/2000/svg">
<path d="M53.4337 150.733H4.61778e-05V-7.1076e-05H53.8753C69.0369 -7.1076e-05 82.0887 3.01753 93.0306 9.05274C103.972 15.0389 112.387 23.6501 118.275 34.8864C124.212 46.1227 127.181 59.5669 127.181 75.2192C127.181 90.9206 124.212 104.414 118.275 115.699C112.387 126.985 103.923 135.645 92.8834 141.68C81.8924 147.715 68.7425 150.733 53.4337 150.733ZM31.8689 123.427H52.1089C61.5297 123.427 69.454 121.759 75.8817 118.422C82.3585 115.037 87.2162 109.811 90.4546 102.746C93.742 95.631 95.3858 86.4555 95.3858 75.2192C95.3858 64.0811 93.742 54.9792 90.4546 47.9136C87.2162 40.848 82.3831 35.6469 75.9553 32.3104C69.5276 28.9738 61.6033 27.3056 52.1825 27.3056H31.8689V123.427ZM164.123 150.733H129.973L182.008 -7.1076e-05H223.077L275.038 150.733H240.888L203.131 34.4448H201.954L164.123 150.733ZM161.989 91.4848H242.654V116.362H161.989V91.4848ZM415.113 -7.1076e-05V150.733H387.586L322.009 55.8624H320.905V150.733H289.036V-7.1076e-05H317.004L382.066 94.7968H383.391V-7.1076e-05H415.113ZM469.167 -7.1076e-05V150.733H437.298V-7.1076e-05H469.167ZM491.242 150.733V-7.1076e-05H592.81V26.2752H523.11V62.192H587.584V88.4672H523.11V124.458H593.104V150.733H491.242ZM614.001 150.733V-7.1076e-05H645.87V124.458H710.491V150.733H614.001ZM702.887 26.2752V-7.1076e-05H826.682V26.2752H780.535V150.733H749.034V26.2752H702.887ZM842.924 150.733V-7.1076e-05H903.276C914.365 -7.1076e-05 923.614 1.64366 931.023 4.93114C938.433 8.21861 944.002 12.7818 947.731 18.6208C951.46 24.4106 953.324 31.0837 953.324 38.64C953.324 44.528 952.147 49.7045 949.792 54.1696C947.436 58.5856 944.198 62.2165 940.076 65.0624C936.004 67.8592 931.342 69.8464 926.092 71.024V72.496C931.833 72.7413 937.206 74.3605 942.211 77.3536C947.265 80.3467 951.362 84.5419 954.502 89.9392C957.642 95.2875 959.212 101.666 959.212 109.075C959.212 117.073 957.225 124.212 953.251 130.493C949.325 136.724 943.511 141.656 935.807 145.287C928.104 148.917 918.61 150.733 907.324 150.733H842.924ZM874.793 124.678H900.774C909.655 124.678 916.132 122.986 920.204 119.6C924.277 116.165 926.313 111.602 926.313 105.91C926.313 101.74 925.307 98.0598 923.295 94.8704C921.284 91.6811 918.413 89.1787 914.684 87.3632C911.004 85.5478 906.613 84.64 901.51 84.64H874.793V124.678ZM874.793 63.0752H898.419C902.786 63.0752 906.662 62.3147 910.047 60.7936C913.482 59.2235 916.181 57.0155 918.143 54.1696C920.155 51.3237 921.161 47.9136 921.161 43.9392C921.161 38.4928 919.223 34.1013 915.347 30.7648C911.519 27.4282 906.073 25.76 899.007 25.76H874.793V63.0752Z" fill="currentColor"/>
</svg>
